{"glyphs":{"0":{"ha":1328,"x_min":82,"x_max":1247,"o":"m 664 -19 q 899 21 792 -19 q 1083 132 1006 61 q 1203 300 1160 203 q 1247 510 1247 397 q 1203 721 1247 624 q 1083 889 1160 818 q 899 1000 1006 960 q 664 1040 792 1040 q 429 1000 536 1040 q 245 889 322 960 q 125 721 168 818 q 82 510 82 624 q 125 300 82 397 q 245 132 168 203 q 429 21 322 61 q 664 -19 536 -19 m 664 115 q 497 144 574 115 q 364 226 420 174 q 277 350 308 278 q 245 510 245 423 q 277 670 245 598 q 364 795 308 743 q 497 876 420 847 q 664 906 574 906 q 831 876 754 906 q 964 795 908 847 q 1052 670 1020 743 q 1083 510 1083 598 q 1052 350 1083 423 q 964 226 1020 278 q 831 144 908 174 q 664 115 754 115 z "},"1":{"ha":613,"x_min":67,"x_max":470,"o":"m 317 0 l 470 0 l 470 1021 l 67 765 l 67 763 l 317 763 l 317 0 z "},"2":{"ha":997,"x_min":63,"x_max":962,"o":"m 63 0 l 962 0 l 962 131 l 422 131 l 489 187 q 649 326 574 258 q 781 461 724 393 q 869 601 837 530 q 902 752 902 673 q 875 874 902 820 q 798 964 848 927 q 678 1021 748 1001 q 522 1040 608 1040 q 409 1031 461 1040 q 311 1007 356 1022 q 229 971 267 992 q 160 926 191 950 l 160 746 q 232 817 191 787 q 319 867 272 847 q 416 896 365 887 q 517 906 466 906 q 609 895 568 906 q 679 863 650 885 q 723 809 708 842 q 739 731 739 776 q 715 633 739 684 q 649 528 690 581 q 553 420 608 474 q 439 312 499 365 q 316 208 378 259 q 197 112 254 158 l 63 3 l 63 0 z "},"3":{"ha":1036,"x_min":78,"x_max":966,"o":"m 488 -19 q 612 -10 551 -19 q 725 17 672 -1 q 823 62 778 35 q 899 127 867 90 q 948 210 931 164 q 966 313 966 257 q 945 427 966 378 q 888 514 924 477 q 803 575 851 551 q 702 613 756 599 q 593 630 649 626 q 485 627 537 633 l 961 1019 l 961 1021 l 78 1021 l 78 887 l 607 887 l 251 594 l 313 478 q 394 493 346 487 q 497 499 443 499 q 618 488 562 499 q 714 452 674 476 q 778 393 755 428 q 801 311 801 358 q 776 226 801 263 q 707 164 751 189 q 605 127 663 140 q 478 115 546 115 q 386 122 430 115 q 300 141 342 128 q 217 172 258 153 q 134 213 176 190 l 134 38 q 204 17 164 27 q 290 -2 244 6 q 386 -15 335 -10 q 488 -19 436 -19 z "},"4":{"ha":1056,"x_min":7,"x_max":1008,"o":"m 626 0 l 780 0 l 780 237 l 1008 237 l 1008 369 l 780 369 l 780 647 l 626 522 l 626 369 l 290 369 l 830 1021 l 654 1021 l 7 240 l 7 237 l 626 237 l 626 0 z "},"5":{"ha":1041,"x_min":90,"x_max":962,"o":"m 477 -19 q 661 3 574 -19 q 816 72 749 26 q 922 185 883 117 q 962 343 962 253 q 943 447 962 401 q 893 530 925 494 q 817 593 860 567 q 723 638 773 620 q 618 663 672 655 q 509 672 563 672 q 451 670 478 672 q 399 667 424 669 q 350 660 374 664 q 299 649 325 656 l 355 887 l 880 887 l 880 1021 l 244 1021 l 117 465 q 189 496 151 482 q 269 520 228 510 q 356 536 311 531 q 446 542 400 542 q 576 531 513 542 q 689 495 640 520 q 767 430 738 470 q 797 328 797 389 q 774 239 797 278 q 709 172 751 199 q 608 130 667 144 q 474 115 548 115 q 366 122 417 115 q 267 141 315 128 q 175 172 219 153 q 90 213 131 190 l 90 39 q 161 17 119 27 q 252 -2 202 6 q 359 -15 302 -10 q 477 -19 416 -19 z "},"6":{"ha":1072,"x_min":83,"x_max":988,"o":"m 536 -19 q 722 6 638 -19 q 864 78 805 32 q 955 189 923 124 q 988 333 988 254 q 958 473 988 409 q 874 582 928 536 q 742 655 819 628 q 569 683 665 681 q 511 681 540 683 q 454 674 482 678 l 778 1021 l 590 1021 l 290 691 q 202 591 241 637 q 138 502 164 544 q 97 418 111 459 q 83 333 83 376 q 116 190 83 255 q 208 78 149 125 q 351 6 267 32 q 536 -19 434 -19 m 536 110 q 418 126 472 110 q 327 171 365 142 q 269 241 290 200 q 248 331 248 281 q 269 420 248 380 q 328 490 290 461 q 419 535 366 519 q 536 551 472 551 q 653 535 601 551 q 744 490 706 519 q 802 420 781 461 q 823 331 823 380 q 802 241 823 281 q 744 171 781 200 q 653 126 706 142 q 536 110 601 110 z "},"7":{"ha":933,"x_min":36,"x_max":933,"o":"m 143 0 l 310 0 l 933 1019 l 933 1021 l 36 1021 l 36 887 l 690 887 l 143 0 z "},"8":{"ha":1074,"x_min":90,"x_max":983,"o":"m 536 -19 q 725 2 642 -19 q 865 63 808 24 q 953 159 923 103 q 983 286 983 216 q 967 377 983 336 q 922 449 950 417 q 857 502 894 480 q 780 538 820 524 l 780 539 q 846 575 816 553 q 898 626 876 597 q 933 692 920 656 q 945 770 945 728 q 916 881 945 831 q 834 966 888 931 q 705 1021 781 1001 q 536 1040 629 1040 q 368 1021 443 1040 q 239 966 292 1001 q 157 881 185 931 q 128 770 128 831 q 140 692 128 728 q 175 626 153 656 q 227 575 197 597 q 293 539 257 553 l 293 538 q 216 502 253 524 q 152 449 180 480 q 107 377 124 417 q 90 286 90 336 q 120 159 90 216 q 208 63 151 103 q 348 2 265 24 q 536 -19 431 -19 m 536 594 q 432 606 478 594 q 355 638 386 617 q 307 688 324 659 q 291 753 291 717 q 307 819 291 790 q 355 869 324 848 q 432 901 386 890 q 536 912 478 912 q 641 901 595 912 q 718 869 687 890 q 766 819 749 848 q 782 753 782 790 q 766 688 782 717 q 718 638 749 659 q 641 606 687 617 q 536 594 595 594 m 536 109 q 415 122 467 109 q 327 158 363 135 q 273 216 292 182 q 255 290 255 249 q 273 365 255 331 q 327 422 292 398 q 415 458 363 445 q 536 471 467 471 q 658 458 605 471 q 746 422 710 445 q 800 365 781 398 q 818 290 818 331 q 800 216 818 249 q 746 158 781 182 q 658 122 710 135 q 536 109 605 109 z "},"9":{"ha":1072,"x_min":84,"x_max":988,"o":"m 535 1040 q 350 1015 433 1040 q 208 943 267 989 q 116 832 149 897 q 84 688 84 767 q 114 548 84 612 q 198 439 143 485 q 330 366 252 392 q 503 338 407 340 q 561 340 532 338 q 617 347 590 342 l 293 0 l 481 0 l 781 330 q 869 430 831 384 q 934 519 908 476 q 974 603 960 562 q 988 688 988 644 q 956 831 988 767 q 864 942 923 896 q 721 1015 804 989 q 535 1040 638 1040 m 535 910 q 653 894 600 910 q 744 850 706 878 q 803 780 782 821 q 824 690 824 740 q 803 600 824 641 q 744 531 782 560 q 653 485 706 501 q 535 469 600 469 q 418 485 471 469 q 328 531 365 501 q 269 600 290 560 q 249 690 249 641 q 269 780 249 740 q 328 850 290 821 q 418 894 365 878 q 535 910 471 910 z "},"\u0000":{"ha":0,"x_min":0,"x_max":0,"o":""},"\r":{"ha":329,"x_min":0,"x_max":0,"o":""}," ":{"ha":356,"x_min":0,"x_max":0,"o":""},"a":{"ha":1010,"x_min":81,"x_max":920,"o":"m 415 -19 q 277 -3 339 -19 q 172 43 216 13 q 105 119 128 74 q 81 220 81 163 q 118 340 81 292 q 214 419 155 389 q 348 461 274 449 q 497 474 422 474 q 633 463 569 474 q 745 436 698 451 l 745 441 q 725 528 745 493 q 669 584 704 563 q 586 614 633 605 q 485 622 538 622 q 383 615 433 622 q 290 592 334 607 q 210 557 247 578 q 146 510 173 536 l 153 669 q 223 699 183 685 q 309 723 263 713 q 407 739 356 733 q 512 744 459 744 q 669 729 597 744 q 793 676 742 713 q 873 575 844 638 q 899 417 901 512 l 896 242 q 896 168 895 201 q 899 107 897 135 q 907 53 902 79 q 920 0 912 27 l 757 0 q 749 48 752 22 q 744 103 745 75 q 693 56 723 78 q 622 17 663 33 q 530 -10 581 0 q 415 -19 478 -19 m 440 98 q 559 111 502 98 q 658 150 615 124 q 726 218 701 177 q 751 316 751 260 l 751 319 q 707 335 733 327 q 650 349 681 343 q 583 358 618 355 q 510 362 547 362 q 410 355 459 362 q 322 332 360 348 q 259 290 283 316 q 235 226 235 264 q 249 170 235 194 q 290 130 264 147 q 355 106 317 114 q 440 98 393 98 z "},"b":{"ha":1050,"x_min":123,"x_max":974,"o":"m 565 -19 q 728 9 653 -19 q 858 88 803 37 q 943 208 913 138 q 974 362 974 278 q 943 515 974 445 q 858 636 913 585 q 728 715 803 687 q 565 743 653 743 q 466 733 512 743 q 383 707 420 724 q 317 668 346 690 q 270 620 289 645 l 270 1021 l 123 1021 l 123 0 l 270 0 l 270 104 q 317 56 289 78 q 383 17 346 33 q 466 -10 420 0 q 565 -19 512 -19 m 540 107 q 434 124 485 107 q 345 173 384 141 q 284 253 307 206 q 261 362 261 301 q 284 470 261 423 q 345 550 307 518 q 434 600 384 583 q 540 617 485 617 q 644 600 594 617 q 733 551 694 583 q 794 471 772 518 q 817 362 817 424 q 794 253 817 301 q 733 173 772 206 q 644 124 694 141 q 540 107 594 107 z "},"c":{"ha":959,"x_min":76,"x_max":837,"o":"m 528 -19 q 611 -14 569 -19 q 694 2 653 -8 q 771 29 734 13 q 837 66 808 45 l 837 228 q 773 175 809 198 q 695 138 736 153 q 610 115 654 122 q 525 107 567 107 q 404 125 458 107 q 311 177 350 144 q 251 258 272 211 q 230 363 230 306 q 251 467 230 420 q 311 548 272 514 q 404 600 350 581 q 525 618 458 618 q 610 610 567 618 q 695 588 654 603 q 773 550 736 572 q 837 497 809 527 l 837 659 q 771 696 808 680 q 694 723 734 712 q 611 739 653 733 q 528 744 569 744 q 341 716 425 744 q 199 636 258 687 q 108 515 140 585 q 76 363 76 445 q 108 210 76 281 q 199 89 140 140 q 341 9 258 38 q 528 -19 425 -19 z "},"d":{"ha":1050,"x_min":76,"x_max":927,"o":"m 484 -19 q 583 -10 538 -19 q 667 17 629 0 q 733 56 704 33 q 780 104 761 78 l 780 0 l 927 0 l 927 1021 l 780 1021 l 780 620 q 733 668 761 645 q 667 707 704 690 q 583 733 629 724 q 484 743 538 743 q 322 715 397 743 q 192 636 247 687 q 107 515 138 585 q 76 362 76 445 q 107 208 76 278 q 192 88 138 138 q 322 9 247 37 q 484 -19 397 -19 m 510 107 q 405 124 455 107 q 316 173 355 141 q 255 253 278 206 q 232 362 232 301 q 255 471 232 424 q 316 551 278 518 q 405 600 355 583 q 510 617 455 617 q 615 600 565 617 q 705 550 666 583 q 766 470 743 518 q 789 362 789 423 q 766 253 789 301 q 705 173 743 206 q 615 124 666 141 q 510 107 565 107 z "},"e":{"ha":1018,"x_min":76,"x_max":945,"o":"m 514 -19 q 614 -14 565 -19 q 709 3 664 -8 q 794 30 755 14 q 865 66 834 46 l 865 213 q 802 168 838 188 q 725 135 767 149 q 634 114 683 122 q 531 107 585 107 q 406 125 462 107 q 310 176 350 143 q 249 257 270 210 q 228 361 227 303 q 248 472 227 423 q 307 556 269 522 q 398 609 345 590 q 512 627 450 627 q 614 614 568 627 q 694 576 660 601 q 750 518 728 552 q 778 440 772 483 l 211 440 l 212 315 l 942 315 q 913 500 945 420 q 823 635 881 581 q 685 717 765 689 q 513 744 606 744 q 336 716 416 744 q 198 636 256 687 q 108 515 140 585 q 76 362 76 444 q 107 209 76 279 q 197 89 139 140 q 335 9 255 38 q 514 -19 416 -19 z "},"f":{"ha":771,"x_min":69,"x_max":826,"o":"m 210 0 l 357 0 l 357 597 l 790 597 l 790 724 l 357 724 l 357 742 q 376 827 357 794 q 429 880 395 860 q 510 906 463 899 q 611 913 556 913 q 663 911 634 913 q 722 907 692 910 q 780 900 752 904 q 826 892 807 897 l 756 1027 q 680 1036 719 1033 q 601 1040 641 1040 q 458 1025 528 1040 q 333 976 388 1011 q 244 882 278 941 q 210 734 210 823 l 210 724 l 69 724 l 69 597 l 210 597 l 210 0 z "},"g":{"ha":1049,"x_min":76,"x_max":927,"o":"m 484 -1 q 583 9 538 -1 q 667 35 629 19 q 733 74 704 51 q 780 121 761 96 l 780 89 q 756 -30 780 18 q 692 -106 732 -77 q 599 -147 651 -135 q 491 -159 547 -159 q 355 -143 419 -159 q 222 -91 290 -127 l 222 -240 q 352 -276 285 -267 q 485 -285 419 -285 q 659 -264 578 -285 q 800 -196 740 -242 q 893 -77 859 -150 q 927 99 927 -4 l 927 724 l 780 724 l 780 622 q 733 669 761 647 q 667 707 704 691 q 583 733 629 724 q 484 743 538 743 q 322 716 397 743 q 192 639 247 688 q 107 521 138 590 q 76 372 76 453 q 107 222 76 290 q 192 104 138 153 q 322 27 247 54 q 484 -1 397 -1 m 510 124 q 405 140 455 124 q 316 188 355 156 q 255 266 278 219 q 232 372 232 312 q 255 477 232 431 q 316 555 278 524 q 405 602 355 586 q 510 619 455 619 q 615 602 565 619 q 705 555 666 586 q 766 477 743 524 q 789 372 789 431 q 766 266 789 312 q 705 188 743 219 q 615 140 666 156 q 510 124 565 124 z "},"h":{"ha":974,"x_min":123,"x_max":867,"o":"m 123 0 l 270 0 l 270 387 q 286 486 270 443 q 331 558 301 529 q 401 603 360 588 q 494 618 443 618 q 588 603 547 618 q 659 558 630 588 q 704 486 688 529 q 719 387 719 443 l 719 0 l 867 0 l 867 421 q 843 556 867 497 q 778 658 820 616 q 676 722 735 699 q 543 744 616 744 q 375 711 444 744 q 270 624 306 678 l 270 1021 l 123 1021 l 123 0 z "},"i":{"ha":606,"x_min":7,"x_max":503,"o":"m 409 863 q 447 870 429 863 q 476 889 464 876 q 496 917 489 901 q 503 955 503 934 q 496 992 503 976 q 476 1021 489 1009 q 447 1040 464 1033 q 409 1047 429 1047 q 371 1040 388 1047 q 341 1021 353 1033 q 321 992 328 1009 q 314 955 314 976 q 321 917 314 934 q 341 889 328 901 q 371 870 353 876 q 409 863 388 863 m 335 0 l 483 0 l 483 724 l 7 724 l 7 597 l 335 597 l 335 0 z "},"j":{"ha":605,"x_min":7,"x_max":503,"o":"m 409 863 q 447 870 429 863 q 476 889 464 876 q 496 917 489 901 q 503 955 503 934 q 496 992 503 976 q 476 1021 489 1009 q 447 1040 464 1033 q 409 1047 429 1047 q 371 1040 388 1047 q 341 1021 353 1033 q 321 992 328 1009 q 314 955 314 976 q 321 917 314 934 q 341 889 328 901 q 371 870 353 876 q 409 863 388 863 m 94 -272 q 129 -274 112 -274 q 163 -275 147 -275 q 293 -257 235 -275 q 394 -197 352 -238 q 459 -87 436 -155 q 483 80 483 -19 l 483 724 l 7 724 l 7 597 l 335 597 l 335 85 q 321 -36 335 10 q 280 -107 306 -82 q 215 -141 253 -132 q 133 -149 178 -149 q 73 -147 103 -149 q 10 -142 42 -145 l 94 -272 z "},"k":{"ha":921,"x_min":123,"x_max":913,"o":"m 123 0 l 270 0 l 270 1021 l 123 1021 l 123 0 m 678 0 l 913 0 l 415 392 l 408 328 l 819 574 l 819 724 l 251 374 l 249 340 l 678 0 z "},"l":{"ha":392,"x_min":123,"x_max":270,"o":"m 123 0 l 270 0 l 270 1021 l 123 1021 l 123 0 z "},"m":{"ha":1574,"x_min":123,"x_max":1463,"o":"m 123 0 l 270 0 l 270 387 q 286 486 270 443 q 331 558 301 529 q 401 603 360 588 q 494 618 443 618 q 588 603 547 618 q 659 558 630 588 q 704 486 688 529 q 719 387 719 443 l 719 0 l 867 0 l 867 387 q 882 486 867 443 q 927 558 898 529 q 998 603 956 588 q 1091 618 1040 618 q 1185 603 1143 618 q 1256 558 1226 588 q 1300 486 1285 529 q 1316 387 1316 443 l 1316 0 l 1463 0 l 1463 421 q 1440 556 1463 497 q 1374 658 1417 616 q 1272 721 1332 699 q 1140 743 1213 743 q 1047 734 1092 743 q 960 707 1001 725 q 885 660 919 688 q 827 593 851 632 q 715 704 788 665 q 543 743 642 743 q 375 710 444 743 q 270 624 306 678 l 270 724 l 123 724 l 123 0 z "},"n":{"ha":976,"x_min":123,"x_max":867,"o":"m 123 0 l 270 0 l 270 387 q 286 486 270 443 q 331 558 301 529 q 401 603 360 588 q 494 618 443 618 q 588 603 547 618 q 659 558 630 588 q 704 486 688 529 q 719 387 719 443 l 719 0 l 867 0 l 867 421 q 843 556 867 497 q 778 658 820 616 q 676 721 735 699 q 543 743 616 743 q 375 710 444 743 q 270 624 306 678 l 270 724 l 123 724 l 123 0 z "},"o":{"ha":1022,"x_min":76,"x_max":947,"o":"m 510 -19 q 686 9 606 -19 q 825 89 767 38 q 915 210 883 140 q 947 363 947 280 q 915 515 947 445 q 825 636 883 585 q 686 715 767 687 q 510 744 606 744 q 335 715 415 744 q 197 636 255 687 q 108 515 140 585 q 76 363 76 445 q 108 210 76 280 q 197 89 140 140 q 335 9 255 38 q 510 -19 415 -19 m 510 107 q 398 125 449 107 q 309 177 347 144 q 251 258 272 211 q 231 363 231 306 q 251 467 231 420 q 309 547 272 514 q 398 599 347 581 q 510 617 449 617 q 624 599 572 617 q 713 547 675 581 q 771 467 750 514 q 792 363 792 420 q 771 258 792 306 q 713 177 750 211 q 624 125 675 144 q 510 107 572 107 z "},"p":{"ha":1050,"x_min":123,"x_max":974,"o":"m 565 -19 q 728 9 653 -19 q 858 88 803 37 q 943 208 913 138 q 974 362 974 278 q 943 515 974 445 q 858 636 913 585 q 728 715 803 687 q 565 743 653 743 q 466 733 512 743 q 383 707 420 724 q 317 668 346 690 q 270 620 289 645 l 270 724 l 123 724 l 123 -267 l 270 -267 l 270 104 q 317 56 289 78 q 383 17 346 33 q 466 -10 420 0 q 565 -19 512 -19 m 540 107 q 434 124 485 107 q 345 173 384 141 q 284 253 307 206 q 261 362 261 301 q 284 470 261 423 q 345 550 307 518 q 434 600 384 583 q 540 617 485 617 q 644 600 594 617 q 733 551 694 583 q 794 471 772 518 q 817 362 817 424 q 794 253 817 301 q 733 173 772 206 q 644 124 694 141 q 540 107 594 107 z "},"q":{"ha":1050,"x_min":76,"x_max":927,"o":"m 484 -19 q 583 -10 538 -19 q 667 17 629 0 q 733 56 704 33 q 780 104 761 78 l 780 -267 l 927 -267 l 927 724 l 780 724 l 780 620 q 733 668 761 645 q 667 707 704 690 q 583 733 629 724 q 484 743 538 743 q 322 715 397 743 q 192 636 247 687 q 107 515 138 585 q 76 362 76 445 q 107 208 76 278 q 192 88 138 138 q 322 9 247 37 q 484 -19 397 -19 m 510 107 q 405 124 455 107 q 316 173 355 141 q 255 253 278 206 q 232 362 232 301 q 255 471 232 424 q 316 551 278 518 q 405 600 355 583 q 510 617 455 617 q 615 600 565 617 q 705 550 666 583 q 766 470 743 518 q 789 362 789 423 q 766 253 789 301 q 705 173 743 206 q 615 124 666 141 q 510 107 565 107 z "},"r":{"ha":664,"x_min":123,"x_max":692,"o":"m 123 0 l 270 0 l 270 362 q 303 484 270 433 q 392 563 335 535 q 526 598 449 592 q 692 586 603 604 l 615 735 q 518 734 569 742 q 419 706 467 726 q 332 653 372 685 q 270 578 292 622 l 270 724 l 123 724 l 123 0 z "},"s":{"ha":962,"x_min":97,"x_max":875,"o":"m 484 -19 q 587 -13 538 -19 q 680 7 636 -6 q 759 39 724 19 q 821 84 795 58 q 861 142 847 110 q 875 214 875 175 q 853 305 875 266 q 791 370 831 344 q 694 411 751 397 q 567 429 637 426 l 435 436 q 349 446 384 439 q 291 464 313 453 q 259 492 269 476 q 249 529 249 508 q 267 572 249 554 q 314 600 284 589 q 383 617 344 612 q 467 622 422 622 q 545 619 506 622 q 626 607 585 616 q 710 584 667 599 q 795 544 752 569 l 795 690 q 728 713 763 703 q 653 730 692 723 q 571 740 614 737 q 483 744 528 744 q 329 729 399 744 q 207 686 258 715 q 126 615 155 657 q 97 518 97 573 q 117 437 97 474 q 175 371 137 399 q 272 325 214 342 q 406 303 330 308 l 527 297 q 615 289 578 294 q 676 273 652 283 q 713 245 701 262 q 724 205 724 229 q 705 158 724 177 q 653 126 686 138 q 577 108 621 113 q 483 102 533 102 q 385 108 435 102 q 287 128 335 115 q 194 163 239 142 q 113 213 150 183 l 113 56 q 182 24 145 38 q 264 1 219 10 q 363 -14 309 -9 q 484 -19 417 -19 z "},"t":{"ha":706,"x_min":69,"x_max":713,"o":"m 357 0 l 357 597 l 713 597 l 713 724 l 357 724 l 357 983 l 210 856 l 210 724 l 69 724 l 69 597 l 210 597 l 210 0 l 357 0 z "},"u":{"ha":976,"x_min":110,"x_max":853,"o":"m 433 -19 q 601 14 532 -19 q 706 99 670 47 l 706 0 l 853 0 l 853 724 l 706 724 l 706 337 q 691 238 706 281 q 646 165 675 194 q 575 121 617 136 q 482 106 533 106 q 388 121 430 106 q 317 165 347 136 q 273 238 288 194 q 257 337 257 281 l 257 724 l 110 724 l 110 303 q 133 168 110 228 q 199 66 156 108 q 301 2 241 24 q 433 -19 360 -19 z "},"v":{"ha":960,"x_min":35,"x_max":925,"o":"m 478 -62 l 481 -62 l 925 724 l 754 724 l 480 211 l 206 724 l 35 724 l 478 -62 z "},"w":{"ha":1479,"x_min":42,"x_max":1438,"o":"m 427 -62 l 432 -62 l 740 526 l 1047 -62 l 1052 -62 l 1438 724 l 1273 724 l 1037 232 l 740 799 l 442 232 l 207 724 l 42 724 l 427 -62 z "},"x":{"ha":984,"x_min":56,"x_max":928,"o":"m 742 0 l 928 0 l 256 724 l 70 724 l 742 0 m 56 0 l 229 0 l 913 724 l 738 724 l 56 0 z "},"y":{"ha":949,"x_min":33,"x_max":917,"o":"m 131 -267 l 290 -267 l 917 724 l 757 724 l 131 -267 m 432 63 l 520 185 l 194 724 l 33 724 l 432 63 z "},"z":{"ha":916,"x_min":60,"x_max":847,"o":"m 92 0 l 847 0 l 847 126 l 272 126 l 274 26 l 812 719 l 812 724 l 60 724 l 60 597 l 600 597 l 600 661 l 92 5 l 92 0 z "},",":{"ha":380,"x_min":48,"x_max":311,"o":"m 48 -163 l 182 -163 l 311 161 l 153 161 l 48 -163 z "},".":{"ha":388,"x_min":91,"x_max":297,"o":"m 194 -19 q 235 -12 217 -19 q 268 9 254 -5 q 290 41 282 22 q 297 83 297 60 q 290 125 297 106 q 268 157 282 144 q 235 177 254 170 q 194 185 217 185 q 153 177 172 185 q 120 157 134 170 q 99 125 106 144 q 91 83 91 106 q 99 41 91 60 q 120 9 106 22 q 153 -12 134 -5 q 194 -19 172 -19 z "},"-":{"ha":578,"x_min":69,"x_max":508,"o":"m 69 298 l 508 298 l 508 427 l 69 427 l 69 298 z "},"A":{"ha":1167,"x_min":28,"x_max":1139,"o":"m 28 0 l 199 0 l 365 333 l 802 333 l 968 0 l 1139 0 l 585 1083 l 582 1083 l 28 0 m 433 469 l 583 772 l 734 469 l 433 469 z "},"B":{"ha":1087,"x_min":142,"x_max":989,"o":"m 142 0 l 617 0 q 772 19 703 0 q 889 74 840 38 q 963 165 937 110 q 989 290 989 219 q 973 383 989 342 q 931 456 958 424 q 869 510 904 488 q 797 545 835 532 q 846 580 823 560 q 885 627 869 601 q 911 688 902 654 q 921 760 921 721 q 901 862 921 815 q 842 945 882 910 q 743 1000 803 980 q 601 1021 683 1021 l 142 1021 l 142 0 m 295 588 l 295 890 l 591 890 q 663 879 631 890 q 716 848 694 868 q 749 801 738 828 q 760 740 760 773 q 749 678 760 706 q 716 630 738 650 q 663 599 694 610 q 591 588 631 588 l 295 588 m 295 131 l 295 463 l 614 463 q 709 451 669 463 q 775 418 749 440 q 812 366 800 397 q 824 297 824 335 q 812 228 824 259 q 775 175 800 197 q 709 142 749 153 q 614 131 669 131 l 295 131 z "},"C":{"ha":1228,"x_min":82,"x_max":1103,"o":"m 686 -19 q 802 -12 745 -19 q 911 9 858 -5 q 1012 42 963 22 q 1103 88 1060 63 l 1103 276 q 1026 209 1069 239 q 931 158 983 179 q 817 126 878 138 q 687 115 756 115 q 511 144 592 115 q 371 226 430 174 q 278 350 312 278 q 245 510 245 423 q 278 670 245 598 q 371 795 312 743 q 511 876 430 847 q 687 906 592 906 q 817 894 756 906 q 931 863 878 883 q 1026 812 983 842 q 1103 744 1069 782 l 1103 933 q 1012 978 1060 958 q 911 1012 963 999 q 802 1033 858 1026 q 686 1040 745 1040 q 443 1000 554 1040 q 252 889 332 960 q 127 721 172 818 q 82 510 82 624 q 127 300 82 397 q 252 132 172 203 q 443 21 332 61 q 686 -19 554 -19 z "},"D":{"ha":1200,"x_min":142,"x_max":1119,"o":"m 142 0 l 508 0 q 756 38 644 0 q 949 142 868 75 q 1074 303 1030 210 q 1119 510 1119 397 q 1074 717 1119 624 q 949 878 1030 811 q 756 983 868 946 q 508 1021 644 1021 l 142 1021 l 142 0 m 295 133 l 295 888 l 507 888 q 692 861 609 888 q 833 784 774 834 q 923 665 892 735 q 955 510 955 596 q 923 356 955 425 q 833 236 892 286 q 692 160 774 187 q 507 133 609 133 l 295 133 z "},"E":{"ha":1010,"x_min":142,"x_max":904,"o":"m 142 0 l 904 0 l 904 134 l 295 134 l 295 451 l 721 451 l 721 583 l 295 583 l 295 887 l 903 887 l 903 1021 l 142 1021 l 142 0 z "},"F":{"ha":934,"x_min":142,"x_max":906,"o":"m 142 0 l 295 0 l 295 451 l 721 451 l 721 583 l 295 583 l 295 887 l 906 887 l 906 1021 l 142 1021 l 142 0 z "},"G":{"ha":1317,"x_min":82,"x_max":1256,"o":"m 662 -19 q 912 21 801 -19 q 1098 135 1022 62 q 1215 309 1174 208 q 1256 533 1256 411 l 683 533 l 683 402 l 1075 402 q 1027 281 1061 335 q 941 190 993 227 q 819 134 889 153 q 663 114 749 114 q 501 143 576 114 q 368 225 425 172 q 278 350 311 278 q 245 510 245 423 q 278 670 245 598 q 371 795 312 743 q 511 876 430 847 q 687 906 592 906 q 816 894 756 906 q 928 863 876 883 q 1022 812 979 842 q 1097 744 1064 782 l 1097 933 q 1007 978 1054 958 q 908 1012 960 999 q 801 1033 856 1026 q 686 1040 745 1040 q 443 1000 554 1040 q 252 889 332 960 q 127 721 172 818 q 82 510 82 624 q 126 300 82 397 q 249 132 171 203 q 433 21 327 61 q 662 -19 539 -19 z "},"H":{"ha":1222,"x_min":142,"x_max":1078,"o":"m 142 0 l 295 0 l 295 451 l 926 451 l 926 0 l 1078 0 l 1078 1021 l 926 1021 l 926 586 l 295 586 l 295 1021 l 142 1021 l 142 0 z "},"I":{"ha":438,"x_min":142,"x_max":295,"o":"m 142 0 l 295 0 l 295 1021 l 142 1021 l 142 0 z "},"J":{"ha":933,"x_min":27,"x_max":791,"o":"m 378 -19 q 476 -13 426 -19 q 571 10 525 -7 q 657 55 617 26 q 727 129 697 84 q 774 236 757 174 q 791 383 791 299 l 791 1021 l 27 1021 l 27 887 l 638 887 l 638 386 q 628 284 638 327 q 601 210 619 240 q 558 162 583 181 q 503 133 533 143 q 439 119 473 122 q 368 115 405 115 q 316 117 345 115 q 257 121 287 118 q 200 127 227 124 q 153 135 172 131 l 224 -7 q 299 -16 260 -12 q 378 -19 338 -19 z "},"K":{"ha":1142,"x_min":142,"x_max":1163,"o":"m 142 0 l 294 0 l 294 1021 l 142 1021 l 142 0 m 897 0 l 1163 0 l 404 558 l 412 481 l 1008 860 l 1010 1021 l 256 534 l 219 501 l 897 0 z "},"L":{"ha":933,"x_min":142,"x_max":873,"o":"m 142 0 l 873 0 l 873 134 l 295 134 l 295 1021 l 142 1021 l 142 0 z "},"M":{"ha":1436,"x_min":142,"x_max":1294,"o":"m 142 0 l 295 0 l 295 692 l 717 203 l 719 203 l 1141 692 l 1141 0 l 1294 0 l 1294 1083 l 1292 1083 l 718 417 l 144 1083 l 142 1083 l 142 0 z "},"N":{"ha":1225,"x_min":142,"x_max":1083,"o":"m 142 0 l 295 0 l 295 794 l 1083 -53 l 1083 1021 l 930 1021 l 930 345 l 295 1021 l 142 1021 l 142 0 z "},"P":{"ha":1017,"x_min":142,"x_max":999,"o":"m 142 0 l 295 0 l 295 399 l 624 399 q 793 423 722 399 q 910 489 864 447 q 977 587 956 531 q 999 710 999 644 q 977 833 999 776 q 910 931 956 890 q 793 997 864 973 q 624 1021 722 1021 l 142 1021 l 142 0 m 295 529 l 295 890 l 612 890 q 783 844 728 890 q 838 710 838 797 q 783 576 838 623 q 612 529 728 529 l 295 529 z "},"Q":{"ha":1342,"x_min":82,"x_max":1307,"o":"m 664 -19 q 899 21 792 -19 q 1083 132 1006 61 q 1203 300 1160 203 q 1247 510 1247 397 q 1203 721 1247 624 q 1083 889 1160 818 q 899 1000 1006 960 q 664 1040 792 1040 q 429 1000 536 1040 q 245 889 322 960 q 125 721 168 818 q 82 510 82 624 q 125 300 82 397 q 245 132 168 203 q 429 21 322 61 q 664 -19 536 -19 m 664 115 q 497 144 574 115 q 364 226 420 174 q 277 350 308 278 q 245 510 245 423 q 277 670 245 598 q 364 795 308 743 q 497 876 420 847 q 664 906 574 906 q 831 876 754 906 q 964 795 908 847 q 1052 670 1020 743 q 1083 510 1083 598 q 1052 350 1083 423 q 964 226 1020 278 q 831 144 908 174 q 664 115 754 115 m 1307 -249 l 1307 -71 l 1015 148 l 852 94 l 1307 -249 z "},"R":{"ha":1097,"x_min":142,"x_max":1090,"o":"m 142 0 l 295 0 l 295 426 l 594 426 q 755 449 686 426 q 869 510 824 471 q 936 605 914 550 q 959 724 959 659 q 938 843 959 788 q 871 937 916 897 q 758 999 826 976 q 594 1021 689 1021 l 142 1021 l 142 0 m 295 556 l 295 890 l 583 890 q 745 847 692 890 q 798 723 798 804 q 745 599 798 642 q 583 556 692 556 l 295 556 m 849 0 l 1090 0 l 442 490 l 214 490 l 849 0 z "},"S":{"ha":1071,"x_min":119,"x_max":970,"o":"m 531 -19 q 700 0 620 -19 q 839 58 779 19 q 935 155 899 97 q 970 290 970 213 q 946 406 970 356 q 876 490 922 455 q 766 548 831 525 q 620 584 701 570 l 482 608 q 391 629 429 617 q 328 660 353 642 q 291 702 303 678 q 279 760 279 727 q 299 826 279 799 q 351 873 319 854 q 427 900 384 891 q 517 908 471 908 q 616 900 565 908 q 715 877 667 892 q 804 839 763 862 q 875 788 846 817 l 875 976 q 800 1003 843 991 q 711 1024 757 1015 q 620 1036 665 1032 q 537 1040 574 1040 q 372 1021 448 1040 q 239 965 295 1001 q 151 874 183 928 q 119 753 119 821 q 142 642 119 690 q 205 559 164 594 q 306 500 247 524 q 438 465 365 477 l 574 441 q 680 417 635 431 q 753 384 724 403 q 797 338 783 365 q 810 274 810 311 q 789 204 810 234 q 729 153 767 174 q 642 123 692 133 q 538 113 593 113 q 422 123 481 113 q 310 152 364 133 q 210 200 257 172 q 129 264 164 228 l 129 76 q 213 36 165 53 q 314 6 260 18 q 423 -13 367 -6 q 531 -19 478 -19 z "},"T":{"ha":1044,"x_min":46,"x_max":999,"o":"m 446 0 l 598 0 l 598 887 l 999 887 l 999 1021 l 46 1021 l 46 887 l 446 887 l 446 0 z "},"U":{"ha":1199,"x_min":135,"x_max":1065,"o":"m 600 -19 q 786 4 701 -19 q 933 79 871 27 q 1030 215 995 131 q 1065 419 1065 299 l 1065 1021 l 912 1021 l 912 419 q 889 274 912 333 q 824 180 865 215 q 725 129 782 144 q 600 114 667 114 q 475 129 532 114 q 376 180 417 144 q 310 274 334 215 q 287 419 287 333 l 287 1021 l 135 1021 l 135 419 q 169 215 135 299 q 266 79 204 131 q 414 4 328 27 q 600 -19 499 -19 z "},"V":{"ha":1167,"x_min":28,"x_max":1139,"o":"m 582 -62 l 585 -62 l 1139 1021 l 972 1021 l 588 249 l 203 1021 l 28 1021 l 582 -62 z "},"W":{"ha":1617,"x_min":35,"x_max":1582,"o":"m 461 -62 l 463 -62 l 808 772 l 1154 -62 l 1156 -62 l 1582 1021 l 1418 1021 l 1147 309 l 810 1126 l 806 1126 l 469 309 l 199 1021 l 35 1021 l 461 -62 z "},"X":{"ha":1203,"x_min":40,"x_max":1163,"o":"m 968 0 l 1163 0 l 260 1021 l 65 1021 l 968 0 m 40 0 l 220 0 l 1138 1021 l 958 1021 l 40 0 z "},"Y":{"ha":1106,"x_min":26,"x_max":1079,"o":"m 476 0 l 629 0 l 629 435 l 1079 1021 l 903 1021 l 553 563 l 203 1021 l 26 1021 l 476 435 l 476 0 z "},"Z":{"ha":1078,"x_min":85,"x_max":991,"o":"m 100 0 l 991 0 l 991 134 l 326 134 l 319 76 l 978 1017 l 978 1021 l 85 1021 l 85 887 l 742 887 l 749 944 l 100 3 l 100 0 z "},"O":{"ha":1328,"x_min":82,"x_max":1247,"o":"m 664 -19 q 899 21 792 -19 q 1083 132 1006 61 q 1203 300 1160 203 q 1247 510 1247 397 q 1203 721 1247 624 q 1083 889 1160 818 q 899 1000 1006 960 q 664 1040 792 1040 q 429 1000 536 1040 q 245 889 322 960 q 125 721 168 818 q 82 510 82 624 q 125 300 82 397 q 245 132 168 203 q 429 21 322 61 q 664 -19 536 -19 m 664 115 q 497 144 574 115 q 364 226 420 174 q 277 350 308 278 q 245 510 245 423 q 277 670 245 598 q 364 795 308 743 q 497 876 420 847 q 664 906 574 906 q 831 876 754 906 q 964 795 908 847 q 1052 670 1020 743 q 1083 510 1083 598 q 1052 350 1083 423 q 964 226 1020 278 q 831 144 908 174 q 664 115 754 115 z "},"/":{"ha":797,"x_min":83,"x_max":713,"o":"m 83 -143 l 231 -143 l 713 1021 l 565 1021 l 83 -143 z "},"’":{"ha":380,"x_min":48,"x_max":311,"o":"m 48 696 l 182 696 l 311 1020 l 153 1020 l 48 696 z "},"'":{"ha":292,"x_min":69,"x_max":222,"o":"m 69 1021 l 69 965 l 86 684 l 206 684 l 222 965 l 222 1021 l 69 1021 z "}}}
